<svg width="59" height="59" viewBox="0 0 59 59" fill="none" xmlns="http://www.w3.org/2000/svg">
<circle r="29.5" transform="matrix(4.37114e-08 1 1 -4.37114e-08 29.5 29.5)" fill="#00764B"/>
<path d="M36.7071 29.2929C37.0976 29.6834 37.0976 30.3166 36.7071 30.7071L30.3431 37.0711C29.9526 37.4616 29.3195 37.4616 28.9289 37.0711C28.5384 36.6805 28.5384 36.0474 28.9289 35.6569L34.5858 30L28.9289 24.3431C28.5384 23.9526 28.5384 23.3195 28.9289 22.9289C29.3195 22.5384 29.9526 22.5384 30.3431 22.9289L36.7071 29.2929ZM34.5 29L36 29L36 31L34.5 31L34.5 29Z" fill="white"/>
</svg>
