<svg width="109" height="66" viewBox="0 0 109 66" fill="none" xmlns="http://www.w3.org/2000/svg">
<path d="M108.148 25.5007L78.2673 0.577423C77.8182 0.204406 77.2512 0 76.6655 0C76.0798 0 75.5127 0.204406 75.0636 0.577423L54.5225 17.7313L33.9889 0.577423C33.5399 0.204406 32.9728 0 32.3871 0C31.8014 0 31.2344 0.204406 30.7853 0.577423L0.897025 25.5007C0.616226 25.731 0.390206 26.02 0.235133 26.347C0.0800599 26.6741 -0.000232227 27.0311 5.04496e-07 27.3925V63.5323C0.00198884 64.1862 0.264707 64.8127 0.730783 65.2751C1.19686 65.7374 1.82842 65.998 2.48755 66H106.512C107.171 65.998 107.803 65.7374 108.269 65.2751C108.735 64.8127 108.998 64.1862 109 63.5323V27.3925C109.004 27.0349 108.93 26.6805 108.783 26.3539C108.636 26.0273 108.419 25.7362 108.148 25.5007ZM2.50262 64.9382C2.12537 64.9382 1.76335 64.7905 1.49518 64.5273C1.22702 64.2641 1.07437 63.9066 1.0704 63.5323V27.3925C1.0712 27.1864 1.11672 26.9829 1.20386 26.7958C1.29101 26.6087 1.41774 26.4424 1.57545 26.3083L31.4637 1.38502C31.7214 1.16745 32.0487 1.04797 32.3871 1.04797C32.7255 1.04797 33.0528 1.16745 33.3105 1.38502L63.1913 26.3083C63.3515 26.4407 63.4805 26.6065 63.569 26.7939C63.6576 26.9812 63.7036 27.1856 63.7038 27.3925V63.5323C63.6979 63.906 63.5447 64.2624 63.2769 64.5252C63.0092 64.788 62.6483 64.9362 62.2716 64.9382H2.50262ZM108.035 63.5323C108.035 63.9092 107.884 64.2705 107.615 64.537C107.347 64.8034 106.983 64.9531 106.603 64.9531H64.3069C64.6007 64.5366 64.7586 64.0407 64.7592 63.5323V27.3925C64.7598 27.0318 64.6804 26.6753 64.5267 26.3484C64.373 26.0214 64.1487 25.732 63.8697 25.5007L55.3442 18.3968L75.7421 1.40745C75.9985 1.19044 76.3246 1.07124 76.6617 1.07124C76.9988 1.07124 77.3249 1.19044 77.5813 1.40745L107.47 26.3307C107.63 26.4628 107.759 26.6285 107.848 26.816C107.937 27.0034 107.982 27.2079 107.982 27.415L108.035 63.5323Z" fill="white"/>
<path d="M21.7773 46.6103L19.6365 43.0733L21.5813 39.9177H19.252L17.556 42.7593C17.4931 42.8659 17.4599 42.9872 17.4599 43.1107C17.4599 43.2342 17.4931 43.3556 17.556 43.4622L19.3727 46.6103H21.7773ZM37.6825 46.6103V37.2781H35.4286V40.815H35.293C35.1627 40.6085 34.9969 40.4262 34.803 40.2766C34.3661 39.9185 33.8169 39.7228 33.2502 39.7233C31.6747 39.7233 30.3179 41.0618 30.3179 43.2976C30.3179 45.5335 31.6973 46.8346 33.3331 46.8346C33.8906 46.8464 34.4355 46.6697 34.8784 46.3336C35.0742 46.1831 35.2403 45.998 35.3683 45.7877H35.4965V46.6477L37.6825 46.6103ZM34.0416 44.9353C33.2049 44.9353 32.617 44.3595 32.617 43.2603C32.617 42.161 33.2049 41.5927 34.0416 41.5927C34.8784 41.5927 35.4739 42.1685 35.4739 43.2603C35.4739 44.352 34.8557 44.9353 34.0115 44.9353H34.0416ZM16.9303 37.2781H14.6689V46.6103H16.8776L16.9303 37.2781ZM9.04556 42.677C7.35705 42.677 6.44495 43.5818 6.44495 44.8081C6.44495 46.0345 7.28167 46.7972 8.70635 46.7972C9.33408 46.8205 9.95102 46.6306 10.4552 46.2588C10.6524 46.112 10.8167 45.9261 10.9376 45.7129H11.0356V46.6103H13.2066V42.52C13.2066 40.83 12.0985 39.7532 9.9652 39.7532C9.43968 39.7145 8.91255 39.8032 8.42928 40.0116C7.94601 40.2201 7.52111 40.542 7.19121 40.9496C6.91756 41.2975 6.73149 41.7051 6.64847 42.1386H8.85711C8.90235 41.9939 8.97962 41.861 9.08325 41.7498C9.20295 41.6408 9.34312 41.5564 9.49574 41.5012C9.64836 41.446 9.81045 41.4212 9.97274 41.4282C10.0942 41.4137 10.2174 41.4233 10.335 41.4566C10.4527 41.4899 10.5625 41.5462 10.658 41.6221C10.7534 41.698 10.8327 41.792 10.891 41.8987C10.9494 42.0054 10.9858 42.1225 10.9979 42.2433C11.0017 42.2956 11.0017 42.348 10.9979 42.4003V42.6546L9.04556 42.677ZM9.62599 45.0624C8.97018 45.0624 8.72897 44.8156 8.72897 44.4193C8.72897 44.023 8.97018 43.7762 9.58076 43.7762H11.0884C11.1048 44.1063 10.9887 44.4293 10.7654 44.6746C10.5422 44.9199 10.23 45.0674 9.89736 45.0848C9.80706 45.0923 9.71629 45.0923 9.62599 45.0848V45.0624ZM42.5521 39.7233C41.9619 39.7578 41.3894 39.9368 40.8859 40.2442C40.3824 40.5517 39.9635 40.978 39.6665 41.4852C39.3696 41.9923 39.2039 42.5646 39.1842 43.1508C39.1645 43.737 39.2915 44.3189 39.5537 44.8445C39.8159 45.3702 40.2053 45.8232 40.6871 46.1632C41.1689 46.5033 41.728 46.7196 42.3146 46.793C42.9012 46.8665 43.497 46.7946 44.0488 46.584C44.6006 46.3733 45.0912 46.0304 45.4768 45.5858C45.7918 45.2283 46.0303 44.8111 46.1779 44.3595H43.8411C43.7805 44.4989 43.6906 44.6239 43.5772 44.7259C43.4372 44.849 43.2736 44.943 43.0961 45.002C42.9187 45.0611 42.7311 45.0842 42.5445 45.0699C41.7907 45.0699 41.2555 44.5689 41.1123 43.6491H46.2457V43.2752C46.2457 42.8046 46.152 42.3385 45.97 41.9039C45.788 41.4693 45.5212 41.0746 45.185 40.7425C44.8488 40.4104 44.4499 40.1474 44.011 39.9686C43.5721 39.7899 43.1019 39.6989 42.6274 39.7009L42.5521 39.7233ZM41.1726 42.52C41.2471 42.1613 41.4618 41.8465 41.7699 41.6446C42.0779 41.4428 42.4541 41.3703 42.8159 41.4432C43.0849 41.4939 43.3322 41.6237 43.5258 41.8158C43.7194 42.0078 43.8502 42.2532 43.9014 42.52H41.1726ZM10.0632 38.7288C10.3614 38.7288 10.6529 38.641 10.9008 38.4767C11.1487 38.3124 11.3419 38.0788 11.456 37.8055C11.5701 37.5323 11.6 37.2316 11.5418 36.9414C11.4837 36.6513 11.3401 36.3849 11.1292 36.1757C10.9184 35.9665 10.6498 35.8241 10.3573 35.7664C10.0649 35.7087 9.76174 35.7383 9.48626 35.8515C9.21078 35.9647 8.97533 36.1564 8.80967 36.4023C8.64401 36.6483 8.55559 36.9374 8.55559 37.2332C8.55559 37.6299 8.71443 38.0103 8.99716 38.2907C9.27989 38.5712 9.66336 38.7288 10.0632 38.7288ZM10.0632 36.6649C10.1455 36.6556 10.2288 36.6637 10.3078 36.6886C10.3867 36.7135 10.4594 36.7546 10.5212 36.8093C10.583 36.864 10.6324 36.9311 10.6663 37.0061C10.7001 37.081 10.7176 37.1623 10.7176 37.2444C10.7176 37.3266 10.7001 37.4078 10.6663 37.4828C10.6324 37.5578 10.583 37.6248 10.5212 37.6795C10.4594 37.7343 10.3867 37.7754 10.3078 37.8003C10.2288 37.8252 10.1455 37.8332 10.0632 37.824C9.90926 37.824 9.76162 37.7633 9.65277 37.6553C9.54392 37.5473 9.48277 37.4009 9.48277 37.2482C9.48665 37.1013 9.5477 36.9617 9.65309 36.8585C9.75849 36.7554 9.90007 36.6967 10.0481 36.6948L10.0632 36.6649ZM26.8428 46.6103H29.0515V42.52C29.0515 40.83 27.9283 39.7532 25.795 39.7532C25.2717 39.7144 24.7467 39.8031 24.2659 40.0117C23.785 40.2202 23.3628 40.5422 23.0361 40.9496C22.7603 41.2971 22.5717 41.7046 22.4859 42.1386H24.6945C24.7336 41.9975 24.8002 41.8655 24.8905 41.7498C25.0074 41.6413 25.145 41.557 25.2951 41.5018C25.4452 41.4466 25.6049 41.4216 25.7649 41.4282C26.0108 41.3986 26.2584 41.4671 26.4535 41.6185C26.6485 41.7699 26.775 41.992 26.8051 42.2358C26.8089 42.2906 26.8089 42.3455 26.8051 42.4003V42.6546H24.8226C23.1417 42.6546 22.2296 43.5594 22.2296 44.7857C22.2296 46.0121 23.0587 46.7748 24.491 46.7748C25.1212 46.7992 25.7409 46.6092 26.2473 46.2364C26.4487 46.091 26.6137 45.9017 26.7298 45.683H26.8353L26.8428 46.6103ZM25.4106 45.0699C24.7473 45.0699 24.4985 44.8231 24.4985 44.4268C24.4985 44.0305 24.7473 43.7837 25.3654 43.7837H26.873C26.879 43.9502 26.8514 44.1162 26.7918 44.2719C26.7322 44.4276 26.6418 44.57 26.5259 44.6905C26.41 44.8111 26.271 44.9074 26.117 44.9738C25.963 45.0403 25.7971 45.0755 25.6292 45.0773C25.5563 45.0822 25.483 45.0797 25.4106 45.0699ZM56.1205 39.7233C55.8189 39.7086 55.5174 39.7555 55.2348 39.8609C54.9522 39.9664 54.6943 40.1283 54.4772 40.3365C54.2991 40.5145 54.1537 40.722 54.0476 40.9496H53.9119C53.8122 40.7165 53.6631 40.5074 53.4747 40.3365C53.2468 40.1281 52.9796 39.9667 52.6885 39.8614C52.3974 39.7562 52.0881 39.7092 51.7786 39.7233C51.2236 39.7119 50.6849 39.9096 50.271 40.2766C50.093 40.4278 49.9448 40.6104 49.8338 40.815H49.6981V39.9177H47.4895V46.6103H49.6981V43.006C49.6981 42.0937 50.2107 41.5927 50.9343 41.5927C51.658 41.5927 51.9746 41.9741 51.9746 42.8191V46.6103H54.1832V43.006C54.1832 42.0937 54.6958 41.5927 55.4119 41.5927C56.128 41.5927 56.4597 41.9741 56.4597 42.8191V46.6103H58.6684V42.52C58.6608 40.6804 57.6959 39.7233 56.1205 39.7233ZM6.78416 59.2402H8.9928V49.9005H6.78416V59.2402ZM14.7217 59.2402H16.9303V49.9005H14.6915L14.7217 59.2402ZM31.1847 52.3158C30.7799 52.3168 30.3816 52.4169 30.0253 52.6074C29.6689 52.7979 29.3654 53.0727 29.1419 53.4075H29.0138V49.9005H26.8428V59.2402H29.0515V58.3428H29.1796C29.3095 58.554 29.4752 58.7412 29.6696 58.8962C30.1086 59.254 30.6619 59.4448 31.23 59.4346C32.8431 59.4346 34.2452 58.0961 34.2452 55.8976C34.2452 53.6992 32.8054 52.3158 31.1847 52.3158ZM30.4309 57.5502C29.5867 57.5502 28.9987 56.9744 28.9987 55.8827C28.9987 54.7909 29.5867 54.2076 30.4309 54.2076C31.2752 54.2076 31.8556 54.7834 31.8556 55.8827C31.8556 56.9819 31.2526 57.5502 30.4083 57.5502H30.4309ZM13.6438 52.5401H11.307L9.61845 55.3966C9.55541 55.5018 9.52214 55.6219 9.52214 55.7443C9.52214 55.8667 9.55541 55.9868 9.61845 56.092L11.4502 59.2402H13.8548L11.6914 55.6882L13.6438 52.5401ZM39.8233 52.3457C39.4172 52.3454 39.0174 52.445 38.6596 52.6356C38.3018 52.8261 37.9972 53.1016 37.773 53.4374H37.6448V49.9005H35.4286V59.2402H37.69V58.3428H37.8182C37.948 58.554 38.1138 58.7412 38.3082 58.8962C38.7482 59.2522 39.3007 59.4429 39.8685 59.4346C41.4741 59.4346 42.8837 58.0961 42.8837 55.8976C42.8837 53.6992 41.4063 52.3158 39.8007 52.3158L39.8233 52.3457ZM39.1072 57.5801C38.2554 57.5801 37.675 57.0043 37.675 55.9126C37.675 54.8208 38.2554 54.2376 39.1072 54.2376C39.959 54.2376 40.5319 54.8133 40.5319 55.9126C40.5319 57.0118 39.9515 57.5502 39.0846 57.5502L39.1072 57.5801ZM23.0814 56.0846C23.099 56.2605 23.0814 56.4381 23.0294 56.6072C22.9775 56.7764 22.8923 56.9336 22.7787 57.0699C22.6652 57.2061 22.5256 57.3187 22.3679 57.4012C22.2102 57.4836 22.0377 57.5343 21.8602 57.5502H21.7848C21.639 57.5603 21.4927 57.5415 21.3543 57.4949C21.2159 57.4484 21.0882 57.3749 20.9787 57.2788C20.8693 57.1828 20.7802 57.066 20.7167 56.9355C20.6532 56.8049 20.6165 56.663 20.6089 56.5183C20.6013 56.4537 20.6013 56.3884 20.6089 56.3238V52.5551H18.3776V56.6828C18.3776 58.4924 19.3425 59.4495 20.9104 59.4495C21.4792 59.4638 22.0337 59.2725 22.4708 58.9111C22.66 58.7572 22.8185 58.5696 22.9381 58.3578H23.0663V59.2551H25.2749V52.5252H23.0587L23.0814 56.0846Z" fill="white"/>
<path d="M70.1853 49.8771H70.7453C70.8013 50.0264 70.8807 50.1547 70.9833 50.2621C71.212 50.5187 71.5177 50.6471 71.9003 50.6471C72.213 50.6471 72.4697 50.5537 72.6703 50.3671C72.8757 50.1804 73.0087 49.9237 73.0693 49.5971H71.6203V49.0721H73.0623C73.0063 48.7641 72.8757 48.5191 72.6703 48.3371C72.4697 48.1504 72.213 48.0571 71.9003 48.0571C71.5317 48.0571 71.2353 48.1737 71.0113 48.4071C70.9087 48.5144 70.8317 48.6311 70.7803 48.7571H70.2203C70.281 48.5331 70.386 48.3301 70.5353 48.1481C70.8713 47.7374 71.3263 47.5321 71.9003 47.5321C72.395 47.5321 72.8103 47.7047 73.1463 48.0501C73.4823 48.3954 73.6503 48.8294 73.6503 49.3521C73.6503 49.8747 73.4823 50.3087 73.1463 50.6541C72.8103 50.9994 72.395 51.1721 71.9003 51.1721C71.2983 51.1721 70.834 50.9574 70.5073 50.5281C70.3533 50.3321 70.246 50.1151 70.1853 49.8771ZM74.4233 51.1021V47.6021H74.9833V49.0021H75.6833L76.8033 47.6021H77.4683L76.1733 49.2471L77.5733 51.1021H76.8733L75.6833 49.5271H74.9833V51.1021H74.4233ZM78.2724 50.6541C77.927 50.3087 77.7544 49.8747 77.7544 49.3521C77.7544 48.8294 77.927 48.3954 78.2724 48.0501C78.6177 47.7047 79.0517 47.5321 79.5744 47.5321C80.097 47.5321 80.531 47.7047 80.8764 48.0501C81.2217 48.3954 81.3944 48.8294 81.3944 49.3521C81.3944 49.8747 81.2217 50.3087 80.8764 50.6541C80.531 50.9994 80.097 51.1721 79.5744 51.1721C79.0517 51.1721 78.6177 50.9994 78.2724 50.6541ZM78.6714 48.4211C78.4334 48.6637 78.3144 48.9741 78.3144 49.3521C78.3144 49.7301 78.4334 50.0404 78.6714 50.2831C78.9094 50.5257 79.2104 50.6471 79.5744 50.6471C79.9384 50.6471 80.2394 50.5257 80.4774 50.2831C80.7154 50.0404 80.8344 49.7301 80.8344 49.3521C80.8344 48.9741 80.7154 48.6637 80.4774 48.4211C80.2394 48.1784 79.9384 48.0571 79.5744 48.0571C79.2104 48.0571 78.9094 48.1784 78.6714 48.4211ZM70.4653 59.1021V55.6021H71.0253V57.0021H71.7253L72.8453 55.6021H73.5103L72.2153 57.2471L73.6153 59.1021H72.9153L71.7253 57.5271H71.0253V59.1021H70.4653ZM74.1431 59.1021V55.6021H75.8581C76.1847 55.6021 76.4414 55.6837 76.6281 55.8471C76.8147 56.0104 76.9081 56.2204 76.9081 56.4771C76.9081 56.5937 76.8917 56.7011 76.8591 56.7991C76.8264 56.8924 76.7867 56.9671 76.7401 57.0231C76.6934 57.0744 76.6421 57.1187 76.5861 57.1561C76.5347 57.1887 76.4904 57.2121 76.4531 57.2261C76.4204 57.2354 76.3971 57.2401 76.3831 57.2401V57.2471C76.3971 57.2471 76.4251 57.2541 76.4671 57.2681C76.5091 57.2774 76.5627 57.3031 76.6281 57.3451C76.6981 57.3824 76.7634 57.4291 76.8241 57.4851C76.8847 57.5411 76.9361 57.6227 76.9781 57.7301C77.0247 57.8374 77.0481 57.9564 77.0481 58.0871C77.0481 58.3904 76.9431 58.6354 76.7331 58.8221C76.5277 59.0087 76.2384 59.1021 75.8651 59.1021H74.1431ZM74.7031 57.0371H75.8231C76.1731 57.0371 76.3481 56.8854 76.3481 56.5821C76.3481 56.2787 76.1731 56.1271 75.8231 56.1271H74.7031V57.0371ZM74.7031 58.5771H75.8581C76.0634 58.5771 76.2197 58.5304 76.3271 58.4371C76.4344 58.3437 76.4881 58.2154 76.4881 58.0521C76.4881 57.8887 76.4344 57.7604 76.3271 57.6671C76.2197 57.5737 76.0634 57.5271 75.8581 57.5271H74.7031V58.5771ZM78.1008 58.6541C77.7741 58.3041 77.6108 57.8701 77.6108 57.3521C77.6108 56.8341 77.7741 56.4024 78.1008 56.0571C78.4275 55.7071 78.8241 55.5321 79.2908 55.5321C79.5848 55.5321 79.8321 55.5881 80.0328 55.7001C80.2381 55.8121 80.3875 55.9334 80.4808 56.0641L80.5438 56.1691H80.5508V55.6021H81.1108V59.1021H80.5508V58.5421H80.5438L80.4808 58.6401C80.3968 58.7661 80.2521 58.8874 80.0468 59.0041C79.8415 59.1161 79.5895 59.1721 79.2908 59.1721C78.8241 59.1721 78.4275 58.9994 78.1008 58.6541ZM78.5068 56.4211C78.2828 56.6637 78.1708 56.9741 78.1708 57.3521C78.1708 57.7301 78.2828 58.0404 78.5068 58.2831C78.7355 58.5257 79.0201 58.6471 79.3608 58.6471C79.7015 58.6471 79.9838 58.5257 80.2078 58.2831C80.4365 58.0404 80.5508 57.7301 80.5508 57.3521C80.5508 56.9741 80.4365 56.6637 80.2078 56.4211C79.9838 56.1784 79.7015 56.0571 79.3608 56.0571C79.0201 56.0571 78.7355 56.1784 78.5068 56.4211ZM82.0933 60.4321V55.6021H82.6533V56.1621H82.6603L82.7303 56.0571C82.8096 55.9357 82.9519 55.8191 83.1573 55.7071C83.3626 55.5904 83.6146 55.5321 83.9133 55.5321C84.3799 55.5321 84.7766 55.7071 85.1033 56.0571C85.4299 56.4024 85.5933 56.8341 85.5933 57.3521C85.5933 57.8701 85.4299 58.3041 85.1033 58.6541C84.7766 58.9994 84.3799 59.1721 83.9133 59.1721C83.6146 59.1721 83.3603 59.1161 83.1503 59.0041C82.9449 58.8874 82.8049 58.7661 82.7303 58.6401L82.6603 58.5421H82.6533V60.4321H82.0933ZM82.9893 56.4211C82.7653 56.6637 82.6533 56.9741 82.6533 57.3521C82.6533 57.7301 82.7653 58.0404 82.9893 58.2831C83.2179 58.5257 83.5026 58.6471 83.8433 58.6471C84.1839 58.6471 84.4663 58.5257 84.6903 58.2831C84.9189 58.0404 85.0333 57.7301 85.0333 57.3521C85.0333 56.9741 84.9189 56.6637 84.6903 56.4211C84.4663 56.1784 84.1839 56.0571 83.8433 56.0571C83.5026 56.0571 83.2179 56.1784 82.9893 56.4211ZM85.9107 56.1271V55.6021H88.9207V56.1271H87.6957V59.1021H87.1357V56.1271H85.9107ZM89.7287 58.6541C89.4021 58.3041 89.2387 57.8701 89.2387 57.3521C89.2387 56.8341 89.4021 56.4024 89.7287 56.0571C90.0554 55.7071 90.4521 55.5321 90.9187 55.5321C91.2127 55.5321 91.4601 55.5881 91.6607 55.7001C91.8661 55.8121 92.0154 55.9334 92.1087 56.0641L92.1717 56.1691H92.1787V55.6021H92.7387V59.1021H92.1787V58.5421H92.1717L92.1087 58.6401C92.0247 58.7661 91.8801 58.8874 91.6747 59.0041C91.4694 59.1161 91.2174 59.1721 90.9187 59.1721C90.4521 59.1721 90.0554 58.9994 89.7287 58.6541ZM90.1347 56.4211C89.9107 56.6637 89.7987 56.9741 89.7987 57.3521C89.7987 57.7301 89.9107 58.0404 90.1347 58.2831C90.3634 58.5257 90.6481 58.6471 90.9887 58.6471C91.3294 58.6471 91.6117 58.5257 91.8357 58.2831C92.0644 58.0404 92.1787 57.7301 92.1787 57.3521C92.1787 56.9741 92.0644 56.6637 91.8357 56.4211C91.6117 56.1784 91.3294 56.0571 90.9887 56.0571C90.6481 56.0571 90.3634 56.1784 90.1347 56.4211ZM93.3012 59.1021L94.2812 55.6021H95.7512L96.7312 59.1021H96.1362L95.3312 56.1271H94.7012L93.8962 59.1021H93.3012Z" fill="white"/>
</svg>
