<svg width="20" height="34" viewBox="0 0 20 34" fill="none" xmlns="http://www.w3.org/2000/svg">
<path d="M7.69328 20.8089C2.69486 20.8089 0 23.5172 0 27.1896C0 30.862 2.47397 33.139 6.68981 33.139C8.54486 33.208 10.368 32.6398 11.8586 31.528C12.4431 31.0918 12.9292 30.5363 13.2849 29.8979H13.5753V32.5809H20V20.3459C20 15.2717 16.7182 12.1004 10.4134 12.1004C8.85876 11.9859 7.29968 12.2514 5.86936 12.8742C4.43764 13.4937 3.18027 14.4588 2.2089 15.684C1.41409 16.7135 0.87338 17.9177 0.631114 19.1978H7.13159C7.26968 18.7674 7.49778 18.3717 7.80057 18.0371C8.15735 17.7129 8.57308 17.4609 9.02493 17.295C9.47519 17.1296 9.95327 17.0542 10.4323 17.073C10.7923 17.0325 11.1567 17.0627 11.5052 17.1618C11.8537 17.2582 12.1783 17.4267 12.4582 17.6566C12.7405 17.8837 12.9762 18.1637 13.1524 18.4811C13.3225 18.8023 13.4296 19.1532 13.468 19.515C13.468 19.6735 13.468 19.8258 13.468 19.9843V20.7455L7.69328 20.8089Z" fill="white"/>
<path d="M9.4098 27.9571C7.46597 27.9571 6.75281 27.215 6.75281 26.0543C6.75281 24.8936 7.46597 24.1515 9.27726 24.1515H13.7329C13.7576 24.6409 13.686 25.1304 13.5224 25.5919C13.3587 26.0535 13.1061 26.4782 12.7791 26.8416C12.452 27.2051 12.0569 27.5002 11.6163 27.7101C11.1757 27.92 10.6983 28.0405 10.2113 28.0649C9.94474 28.0903 9.67637 28.0903 9.4098 28.0649V27.9571Z" fill="#062A30"/>
<path d="M10.7289 8.9989C11.8564 9.03371 12.955 8.63681 13.8024 7.88848C14.6498 7.14016 15.1828 6.0963 15.2934 4.96807C15.4041 3.83984 15.0842 2.71149 14.3985 1.81129C13.7128 0.911097 12.7124 0.306264 11.5998 0.119161C10.7335 -0.0577174 9.83437 0.0306609 9.01858 0.372868C8.05184 0.759339 7.25042 1.47407 6.75366 2.39281C6.2569 3.31155 6.09622 4.37619 6.29954 5.40165C6.50286 6.42711 7.05733 7.34854 7.86656 8.00574C8.67579 8.66294 9.68859 9.01436 10.7289 8.9989Z" fill="white"/>
<path d="M10.7288 2.82104C10.9713 2.79553 11.2164 2.82146 11.4483 2.89715C11.6827 2.96935 11.8982 3.09282 12.0794 3.25868C12.2625 3.42002 12.4088 3.61902 12.5086 3.84221C12.5959 4.07052 12.6346 4.31467 12.6222 4.55893C12.6232 4.80393 12.5716 5.04625 12.4707 5.26931C12.3711 5.49437 12.2247 5.69547 12.0416 5.85918C11.8587 6.02277 11.6437 6.14594 11.4105 6.22071C11.1907 6.29191 10.9584 6.31568 10.7288 6.29048C10.5035 6.29216 10.28 6.24889 10.0714 6.16318C9.8628 6.07748 9.67318 5.95103 9.51352 5.79117C9.35387 5.6313 9.22735 5.4412 9.1413 5.23186C9.05525 5.02252 9.01138 4.79811 9.01222 4.57162C9.02046 4.13077 9.2001 3.71068 9.51268 3.40128C9.82526 3.09188 10.2459 2.91776 10.6847 2.91618L10.7288 2.82104Z" fill="#003942"/>
</svg>
